<svg xmlns="http://www.w3.org/2000/svg" width="16" height="16" viewBox="0 0 16 16"><g fill="none" fill-rule="evenodd"><path stroke="#86A3A1" d="M14.998 11.5a.5.5 0 0 1 .5.5v2.999a.5.5 0 0 1-.5.5H10a.5.5 0 0 1-.5-.5v-3a.5.5 0 0 1 .5-.5zM11 11.5V10a1.5 1.5 0 0 1 3 0v1.5"/><path stroke="#FA9759" stroke-linecap="round" stroke-linejoin="round" d="m.5 6l6 2.996l6-3.498m-9-2.001l3 2.003L12.498 2M3.5 4v7m3-5.502V12.5"/><path stroke="#FA9759" stroke-linecap="round" stroke-linejoin="round" d="M6.499 2.5L9.5 4v3"/><path stroke="#FA9759" stroke-linecap="round" stroke-linejoin="round" d="M12.498 5.5V2L9.538.5L3.5 3.5v.997l-3 1.501v3.54l6 2.962"/></g></svg>
